# xmcd CD database file
# Copyright (C) 1996 Ti Kan
#
# Track frame offsets:
#  150
#  14015
#  25795
#  38375
#  50652
#  63920
#  77200
#  91172
#  104030
#  116900
#  127862
#  140465
#  152747
#  165402
#  177755
#  187712
#  197887
#  208200
#
# Disc length: 2920 seconds
#
# Revision: 1
# Processed by: cddbd v1.4b41PL1 Copyright (c) Steve Scherf et al.
# Submitted via: CDWizzard Release:4.12
#
DISCID=ee0b6612
DTITLE=The Hilltoppers - The Best of the Hilltoppers
DYEAR=1900
DGENRE=
TTITLE0=Trying
TTITLE1=Must I Cry Again
TTITLE2=I'd Rather Die Young
TTITLE3=P.S. I Love You
TTITLE4=To Be Alone
TTITLE5=Love Walked In
TTITLE6=From The Vine Came The Grape
TTITLE7='Till Then
TTITLE8=Poor Butterfly
TTITLE9=D-A-R-L-I-N'
TTITLE10=If I Didn't Care
TTITLE11=Time Waits For No One
TTITLE12=The Kentuckian Song
TTITLE13=Only You (And You Alone)
TTITLE14=My Treasure
TTITLE15=Marianne
TTITLE16=A Fallen Star
TTITLE17=The Joker (That's What They Call Me)
EXTD=
EXTT0=The Hilltoppers
EXTT1=The Hilltoppers
EXTT2=The Hilltoppers
EXTT3=The Hilltoppers
EXTT4=The Hilltoppers
EXTT5=The Hilltoppers
EXTT6=The Hilltoppers
EXTT7=The Hilltoppers
EXTT8=The Hilltoppers
EXTT9=The Hilltoppers
EXTT10=The Hilltoppers
EXTT11=The Hilltoppers
EXTT12=The Hilltoppers
EXTT13=The Hilltoppers
EXTT14=The Hilltoppers
EXTT15=The Hilltoppers
EXTT16=The Hilltoppers
EXTT17=The Hilltoppers
PLAYORDER=
